<svg height="640" viewBox="0 0 480.12 480" width="640" xmlns="http://www.w3.org/2000/svg"><path d="M152 240.059c79.527 0 144-25.07 144-56v-120c0 30.93-64.473 56-144 56s-144-25.07-144-56v120c0 30.93 64.473 56 144 56zm0 0" fill="#9bc9ff"/><path d="M152 240.059c-79.527 0-144-25.07-144-56v112c0 30.93 64.473 56 144 56s144-25.07 144-56v-112c0 30.93-64.473 56-144 56zm0 0" fill="#57a4ff"/><path d="M152 352.059c-79.527 0-144-25.07-144-56v120c0 30.93 64.473 56 144 56s144-25.07 144-56v-120c0 30.93-64.473 56-144 56zm0 0" fill="#2488ff"/><path d="M296 64.059c0-30.926-64.473-56-144-56S8 33.133 8 64.059c0 30.93 64.473 56 144 56s144-25.07 144-56zm0 0" fill="#bddbff"/><path d="M296 64.059c0 30.96-64.48 56-144 56s-144-25.04-144-56a21.502 21.502 0 011.52-8c9.84 27.12 69.921 48 142.48 48s132.64-20.88 142.48-48a21.502 21.502 0 011.52 8zm0 0" fill="#57a4ff"/><g fill="#b2fa09"><path d="M472 240.059c0 13.257-10.746 24-24 24s-24-10.743-24-24c0-13.254 10.746-24 24-24s24 10.746 24 24zm0 0M472 448.059c0 13.257-10.746 24-24 24s-24-10.743-24-24c0-13.254 10.746-24 24-24s24 10.746 24 24zm0 0M472 40.059c0 13.257-10.746 24-24 24s-24-10.743-24-24c0-13.254 10.746-24 24-24s24 10.746 24 24zm0 0"/></g><path d="M296 168.059v16c0 30.96-64.48 56-144 56s-144-25.04-144-56v-16c0 30.96 64.48 56 144 56s144-25.04 144-56zm0 0" fill="#2488ff"/><path d="M296 280.059v16c0 30.96-64.48 56-144 56s-144-25.04-144-56v-16c0 30.96 64.48 56 144 56s144-25.04 144-56zm0 0M296 400.059v16c0 30.96-64.48 56-144 56s-144-25.04-144-56v-16c0 30.96 64.48 56 144 56s144-25.04 144-56zm0 0" fill="#006df0"/><path d="M304 248.059h113.137c4.027 15.605 19.031 25.777 35.015 23.746s27.97-15.63 27.97-31.746c0-16.114-11.985-29.715-27.97-31.743-15.984-2.03-30.988 8.141-35.015 23.743H304v-80h40c13.254 0 24-10.743 24-24v-72a8 8 0 018-8h41.137c4.027 15.605 19.031 25.777 35.015 23.746s27.97-15.63 27.97-31.746c0-16.114-11.985-29.715-27.97-31.743-15.984-2.03-30.988 8.141-35.015 23.743H376c-13.254 0-24 10.746-24 24v72a8 8 0 01-8 8h-40v-72c0-36.489-65.344-64-152-64S0 27.57 0 64.059v352c0 36.488 65.344 64 152 64s152-27.512 152-64v-40h40a8 8 0 018 8v48c0 13.257 10.746 24 24 24h41.137c4.027 15.605 19.031 25.777 35.015 23.746s27.97-15.63 27.97-31.746c0-16.114-11.985-29.715-27.97-31.743-15.984-2.03-30.988 8.141-35.015 23.743H376a8 8 0 01-8-8v-48c0-13.254-10.746-24-24-24h-40zm144-24c8.836 0 16 7.164 16 16 0 8.84-7.164 16-16 16s-16-7.16-16-16c0-8.836 7.164-16 16-16zm0-200c8.836 0 16 7.164 16 16 0 8.84-7.164 16-16 16s-16-7.16-16-16c0-8.836 7.164-16 16-16zm0 408c8.836 0 16 7.164 16 16 0 8.84-7.164 16-16 16s-16-7.16-16-16c0-8.836 7.164-16 16-16zm-296-416c80.152 0 136 25.296 136 48 0 22.707-55.848 48-136 48s-136-25.293-136-48c0-22.704 55.848-48 136-48zM16 93.453c24.457 20.879 74.863 34.606 136 34.606s111.543-13.727 136-34.606v90.606c0 22.707-55.848 48-136 48s-136-25.293-136-48zM152 464.06c-80.152 0-136-25.293-136-48v-90.606c24.457 20.879 74.863 34.606 136 34.606s111.543-13.727 136-34.606v90.606c0 22.707-55.848 48-136 48zm0-120c-80.152 0-136-25.293-136-48v-82.606c24.457 20.879 74.863 34.606 136 34.606s111.543-13.727 136-34.606v82.606c0 22.707-55.848 48-136 48zm0 0"/><path d="M440 32.059h16v16h-16zm0 0M440 232.059h16v16h-16zm0 0M440 440.059h16v16h-16zm0 0"/></svg>